<?xml version="1.0" encoding="UTF-8"?>
<svg width="512" height="512" viewBox="0 0 24 24" xmlns="http://www.w3.org/2000/svg">
  <g fill="none" stroke="#ffffff" stroke-linecap="round" stroke-linejoin="round" stroke-width="1.5">
    <path d="M9 4h-4a1 1 0 0 0-1 1v4"/>
    <path d="M15 4h4a1 1 0 0 1 1 1v4"/>
    <path d="M9 20h-4a1 1 0 0 1-1-1v-4"/>
    <path d="M15 20h4a1 1 0 0 0 1-1v-4"/>
    <path d="M9 10l.01 0"/>
    <path d="M15 10l.01 0"/>
    <path d="M9.5 15a3.5 3.5 0 0 0 5 0"/>
    <path d="M8.5 7.5a1 1 0 0 1 1-1h5a1 1 0 0 1 1 1v3a1 1 0 0 1-1 1h-5a1 1 0 0 1-1-1v-3z"/>
    <path d="M12 16v2"/>
    <path d="M9 18h6"/>
  </g>
</svg> 